<svg xmlns="http://www.w3.org/2000/svg" fill="none" viewBox="0 0 512 512">
  <path
    fill="url(#a)"
    fill-rule="evenodd"
    d="M511 159.835c0-6.055.002-12.11-.035-18.165-.03-5.1-.089-10.2-.228-15.298-.299-11.112-.955-22.319-2.931-33.306-2.004-11.146-5.277-21.52-10.434-31.648a106.503 106.503 0 0 0-46.566-46.543c-10.138-5.159-20.523-8.43-31.682-10.434-10.989-1.973-22.199-2.627-33.31-2.927a733.783 733.783 0 0 0-15.307-.228c-6.058-.037-12.116-.034-18.174-.034L281.993 1h-52.609l-69.095.252c-6.07 0-12.14-.003-18.21.034-5.113.032-10.224.09-15.336.228-11.137.3-22.373.955-33.388 2.93C82.182 6.447 71.781 9.718 61.63 14.873a106.71 106.71 0 0 0-27.027 19.585 106.463 106.463 0 0 0-19.63 26.956C9.798 71.546 6.52 81.927 4.511 93.079c-1.979 10.983-2.634 22.186-2.936 33.293a732.92 732.92 0 0 0-.228 15.298C1.311 147.726 1 155.248 1 161.303l.002 68.138L1 282.613l.314 69.586c0 6.063-.002 12.126.034 18.189.031 5.107.09 10.213.229 15.319.3 11.126.957 22.349 2.937 33.352 2.009 11.16 5.287 21.549 10.455 31.69a106.613 106.613 0 0 0 19.633 26.997 106.707 106.707 0 0 0 27.022 19.61c10.158 5.166 20.564 8.442 31.744 10.448 11.01 1.976 22.242 2.631 33.375 2.932 5.112.138 10.223.196 15.337.227 6.07.038 12.139.035 18.209.035l69.72.002h52.739l69.585-.003c6.058 0 12.116.004 18.174-.034a730.08 730.08 0 0 0 15.307-.227c11.116-.301 22.329-.957 33.323-2.935 11.152-2.006 21.532-5.28 31.665-10.443a106.578 106.578 0 0 0 46.568-46.605c5.16-10.145 8.433-20.539 10.439-31.707 1.974-10.999 2.629-22.217 2.929-33.339.138-5.106.197-10.212.227-15.319.038-6.063.035-12.126.035-18.189l-.004-69.586v-53.228l.004-69.55Z"
    clip-rule="evenodd"
  />
  <path
    fill="#fff"
    d="M91.527 428.36c-7.073-1.134-13.166-6.325-15.437-13.157-1.027-3.065-1.362-5.166-1.362-8.932 0-5.793.813-8.571 3.585-12.312.692-.917 1.935-2.342 2.771-3.114 2.51-2.342 39.643-39.569 39.643-39.713 0-.072-.502-.363-1.147-.604-2.103-.868-7.814-3.716-10.443-5.214-5.161-2.969-11.421-7.459-16.272-11.685-4.254-3.693-10.849-10.67-13.836-14.605-.525-.676-1.29-1.691-1.72-2.196-4.182-5.288-10.92-17.358-13.31-23.852-1.457-3.935-2.46-6.929-3.273-9.827-.502-1.858-1.052-3.766-1.171-4.223-.359-1.256-1.601-7.798-1.912-10.019-.143-1.062-.358-2.631-.478-3.502-.836-5.914-.884-17.453-.143-24.26.788-7.146 2.079-13.618 3.895-19.677 1.147-3.862 1.266-4.225 2.939-8.449 3.847-9.752 9.486-19.168 17.061-28.487 2.652-3.283 10.968-11.491 14.48-14.316 12.068-9.705 26.524-16.996 39.667-19.965 1.242-.29 2.7-.603 3.226-.724 1.386-.314 3.297-.652 5.615-.942 1.123-.145 3.011-.386 4.182-.555 2.915-.386 15.77-.386 18.996 0 6.978.845 9.869 1.352 14.338 2.511 6.093 1.593 15.436 5.142 20.263 7.725 7.742 4.104 16.607 10.236 21.553 14.92.239.217 15.364 15.305 26.095 26.024l10.464 10.429 3.873-4.032c2.149-2.221 4.061-4.2 4.276-4.394C301.732 166.981 380.3 88.015 381.352 87.218c1.887-1.449 4.038-2.487 6.571-3.163 1.697-.459 2.628-.53 6.284-.555 4.038 0 4.421.048 6.333.652 2.94.941 4.802 2.172 7.287 4.683 2.606 2.656 4.182 5.215 5.329 8.619.837 2.438.862 2.51.862 6.687.022 3.887-.025 4.345-.527 5.625-1.17 2.897-3.776 6.156-9.581 11.974-13.908 13.881-26.98 27.183-26.884 27.352.072.097.312.193.527.193.909 0 9.749 3.236 13.428 4.901 1.983.893 7.361 3.621 8.722 4.394 4.422 2.535 11.469 7.17 12.904 8.498.262.241 1.218 1.038 2.149 1.762 15.271 12.119 28.03 30.129 34.267 48.331 1.625 4.733 2.485 7.797 3.703 13.301.647 2.873 1.052 5.241 1.603 9.705.62 4.999.882 16.732.477 21.39-1.576 17.866-6.141 32.302-14.72 46.715-7.337 12.287-18.255 23.922-30.347 32.277-12.138 8.377-24.277 13.301-38.352 15.595-4.491.724-6.929.868-14.216.845-7.791-.025-11.185-.291-17.086-1.425-12.258-2.318-23.393-6.929-33.788-13.978-8.483-5.745-13.574-10.526-44.708-42.079l-14.362-14.533-29.247 29.382c-31.589 31.697-35.867 36.017-41.458 41.932a592.762 592.762 0 0 1-7.67 7.847c-5.52 5.479-13.525 13.568-30.252 30.538-28.124 28.536-29.63 29.984-33.238 31.722-2.844 1.376-5.448 1.955-9.128 2.077-1.84.047-3.966 0-4.707-.122Zm266.886-114.213c8.77-.748 16.39-3.403 24.443-8.521 4.493-2.848 7.05-4.878 10.229-8.039 10.251-10.237 16.536-23.611 18.087-38.482 1.171-11.081-.884-22.644-5.854-32.928-1.744-3.647-4.587-8.499-6.141-10.501-2.651-3.453-4.014-5.022-6.954-7.969-9.582-9.608-19.45-14.725-31.11-16.174-2.606-.314-8.364-.314-10.587 0-9.962 1.449-14.695 3.379-21.552 8.811-1.053.846-13.095 12.844-26.763 26.676-13.667 13.809-24.875 25.156-24.899 25.205-.047.023 7.05 7.29 15.772 16.103 8.698 8.834 20.07 20.4 25.255 25.71 5.185 5.31 10.252 10.307 11.232 11.128 6.285 5.118 13.908 8.257 21.864 8.981 3.13.291 3.609.291 6.978 0Zm-198.235-3.042c1.768-1.689 17.586-17.574 35.15-35.293 17.586-17.722 32.138-32.327 32.33-32.446.19-.097.358-.291.358-.388 0-.12-5.449-5.746-12.116-12.506-6.689-6.735-13.428-13.687-15.004-15.401-8.293-9.078-14.171-14.46-18.926-17.333-4.588-2.801-10.084-4.708-16.559-5.746-3.059-.507-13.334-.435-16.13.096-6.905 1.328-12.425 3.357-18.16 6.687-14.385 8.354-24.923 22.258-29.248 38.507-1.433 5.358-2.007 9.752-2.007 15.451-.024 11.804 2.963 22.546 9.224 33.12 6.547 11.082 17.109 20.303 28.531 24.914 5.854 2.343 10.513 3.308 16.583 3.38l2.796.025 3.178-3.067Z"
  />
  <defs>
    <linearGradient
      id="a"
      x1="1"
      x2="553.219"
      y1="1"
      y2="460.233"
      gradientUnits="userSpaceOnUse"
    >
      <stop stop-color="#23A56F" />
      <stop offset=".505" stop-color="#00A3AB" />
      <stop offset="1" stop-color="#2496D6" />
    </linearGradient>
  </defs>
</svg>
